<?xml version="1.0" encoding="utf-8"?>
<!-- Generator: Adobe Illustrator 17.0.0, SVG Export Plug-In . SVG Version: 6.00 Build 0)  -->
<!DOCTYPE svg PUBLIC "-//W3C//DTD SVG 1.1//EN" "http://www.w3.org/Graphics/SVG/1.1/DTD/svg11.dtd">
<svg version="1.1" id="Camada_1" xmlns="http://www.w3.org/2000/svg" xmlns:xlink="http://www.w3.org/1999/xlink" x="0px" y="0px"
	 width="150px" height="150px" viewBox="0 0 150 150" enable-background="new 0 0 150 150" xml:space="preserve">
<g>
	<g>
		<g>
			<path fill-rule="evenodd" clip-rule="evenodd" fill="#005BA6" d="M13.602,75c0-32.558,26.551-59.114,59.113-59.114
				c27.673,0,51.004,19.188,57.383,44.938l12.408,1.478c-6.014-33.048-35.053-58.239-69.791-58.239
				C33.643,4.064,1.78,35.929,1.78,75c0,18.989,7.528,36.274,19.75,49.029c0.406-6.607,0.773-11.214,1.287-17.397
				C16.987,97.475,13.602,86.621,13.602,75"/>
			<path fill-rule="evenodd" clip-rule="evenodd" fill="#005BA6" d="M143.075,65.967l-12.042-0.601
				c0.518,3.137,0.792,6.355,0.792,9.635c0,32.557-26.553,59.113-59.11,59.113c-15.772,0-30.134-6.231-40.751-16.356l-0.519,14.878
				c11.64,8.365,25.896,13.301,41.27,13.301c39.071,0,70.935-31.867,70.935-70.936C143.65,71.941,143.454,68.926,143.075,65.967"/>
			<polygon fill="#F5EB40" points="38.088,132.786 35.37,131.02 37.812,127.256 40.533,129.022 40.061,129.753 38.306,128.611 
				37.883,129.261 39.513,130.321 39.042,131.049 37.409,129.987 36.808,130.916 38.565,132.062 			"/>
			<path fill="#F5EB40" d="M42.013,133.725c-0.172,0.306-0.448,0.473-0.831,0.501c-0.376,0.026-0.8-0.094-1.269-0.366
				c-0.263-0.148-0.485-0.312-0.672-0.484c-0.184-0.171-0.319-0.325-0.419-0.457l0.453-0.77l0.084,0.05l0.098,0.201l0.193,0.277
				l0.272,0.294l0.37,0.273c0.184,0.109,0.329,0.165,0.443,0.175l0.239-0.103l0.011-0.2l-0.244-0.264l-0.253-0.215l-0.286-0.253
				c-0.225-0.226-0.362-0.448-0.406-0.668c-0.045-0.22,0-0.441,0.127-0.663c0.16-0.279,0.428-0.436,0.805-0.471
				c0.371-0.029,0.79,0.086,1.254,0.355c0.222,0.123,0.416,0.269,0.593,0.428c0.174,0.162,0.304,0.301,0.389,0.414l-0.43,0.744
				l-0.078-0.048c-0.087-0.177-0.199-0.349-0.341-0.509c-0.143-0.16-0.308-0.296-0.489-0.402l-0.418-0.158l-0.258,0.086l-0.022,0.2
				l0.267,0.302l0.275,0.235l0.295,0.259c0.211,0.208,0.335,0.415,0.372,0.621C42.173,133.314,42.132,133.522,42.013,133.725"/>
			<path fill="#F5EB40" d="M43.626,135.807c-0.263-0.141-0.485-0.295-0.673-0.473c-0.177-0.177-0.315-0.373-0.405-0.588
				c-0.088-0.214-0.123-0.441-0.109-0.684c0.021-0.243,0.098-0.498,0.241-0.763c0.146-0.278,0.319-0.494,0.519-0.648
				c0.205-0.152,0.423-0.25,0.659-0.294c0.227-0.042,0.462-0.033,0.704,0.018c0.244,0.055,0.478,0.144,0.706,0.264
				c0.205,0.108,0.381,0.233,0.528,0.365l0.39,0.431l-0.435,0.814l-0.135-0.071l-0.075-0.182l-0.124-0.232l-0.187-0.221
				l-0.287-0.201c-0.252-0.136-0.494-0.157-0.718-0.07c-0.225,0.09-0.409,0.273-0.555,0.554c-0.155,0.286-0.201,0.543-0.137,0.768
				c0.06,0.221,0.219,0.403,0.48,0.54l0.345,0.132l0.297,0.03l0.215-0.022l0.19-0.052l0.135,0.074l-0.436,0.818
				c-0.188-0.011-0.374-0.037-0.559-0.079C44.017,135.988,43.821,135.913,43.626,135.807"/>
			<path fill="#F5EB40" d="M49.234,136.245c-0.211,0.516-0.52,0.86-0.945,1.036c-0.421,0.176-0.905,0.153-1.448-0.066
				c-0.544-0.222-0.907-0.537-1.086-0.955c-0.181-0.422-0.169-0.886,0.042-1.406c0.21-0.517,0.524-0.866,0.945-1.038
				c0.424-0.173,0.907-0.15,1.447,0.068c0.546,0.219,0.908,0.541,1.087,0.959C49.458,135.264,49.443,135.731,49.234,136.245
				 M47.689,136.509l0.263-0.233c0.075-0.099,0.154-0.247,0.238-0.445c0.073-0.187,0.118-0.345,0.136-0.483l-0.02-0.357
				l-0.149-0.251l-0.251-0.157l-0.275-0.068l-0.276,0.072l-0.27,0.238c-0.086,0.114-0.171,0.267-0.246,0.455
				c-0.072,0.176-0.114,0.33-0.134,0.468l0.02,0.361l0.145,0.241l0.263,0.168l0.28,0.058L47.689,136.509z"/>
			
				<rect x="50.062" y="133.709" transform="matrix(0.9456 0.3253 -0.3253 0.9456 47.0124 -9.0624)" fill="#F5EB40" width="1.088" height="4.692"/>
			<path fill="#F5EB40" d="M53.477,138.59l0.193-0.679l-0.473-0.083l-0.395-0.036l-0.279,0.075l-0.153,0.225l-0.029,0.168
				l0.053,0.149l0.133,0.131l0.284,0.112l0.334,0.026L53.477,138.59z M53.331,139.093l-0.252,0.094l-0.276,0.074l-0.349,0.012
				l-0.368-0.07c-0.311-0.088-0.544-0.259-0.696-0.509c-0.154-0.253-0.189-0.526-0.103-0.823c0.071-0.237,0.176-0.416,0.327-0.535
				c0.15-0.123,0.334-0.197,0.552-0.23c0.219-0.029,0.48-0.021,0.771,0.023c0.301,0.045,0.602,0.104,0.915,0.173l0.003-0.015
				c0.053-0.181,0.017-0.325-0.112-0.437c-0.128-0.114-0.334-0.205-0.62-0.288c-0.168-0.05-0.362-0.072-0.574-0.067
				c-0.214,0.002-0.368,0.012-0.458,0.02l-0.098-0.025l0.223-0.785c0.119,0,0.308,0.019,0.564,0.048
				c0.263,0.03,0.518,0.085,0.769,0.156c0.588,0.171,0.991,0.384,1.203,0.64c0.211,0.259,0.261,0.582,0.15,0.974l-0.638,2.212
				l-1.031-0.298L53.331,139.093z"/>
			<path fill="#F5EB40" d="M61.398,141.478l-1.16-0.29l-0.083-0.954l-1.616-0.403l-0.516,0.805l-1.137-0.283l2.699-3.953
				l1.291,0.322L61.398,141.478z M60.083,139.365l-0.147-1.691l-0.925,1.427L60.083,139.365z"/>
			
				<rect x="62.315" y="136.869" transform="matrix(0.9903 0.1391 -0.1391 0.9903 19.9777 -7.3907)" fill="#F5EB40" width="1.083" height="4.686"/>
			<path fill="#F5EB40" d="M67.613,140.69l-2.459-0.344c-0.023,0.266,0.051,0.481,0.212,0.644c0.167,0.165,0.428,0.275,0.785,0.323
				c0.226,0.033,0.452,0.024,0.68-0.028c0.222-0.055,0.403-0.12,0.536-0.193l0.121,0.017l-0.121,0.86
				c-0.255,0.067-0.495,0.103-0.715,0.116c-0.221,0.016-0.462,0.003-0.723-0.036c-0.672-0.093-1.168-0.315-1.481-0.67
				c-0.317-0.35-0.436-0.808-0.356-1.364c0.078-0.554,0.305-0.97,0.692-1.246c0.385-0.273,0.875-0.372,1.464-0.286
				c0.545,0.074,0.935,0.268,1.172,0.583c0.233,0.316,0.315,0.731,0.244,1.246L67.613,140.69z M66.631,139.909
				c0.025-0.224-0.008-0.4-0.093-0.528c-0.092-0.13-0.248-0.209-0.469-0.238c-0.209-0.031-0.386,0-0.533,0.086
				c-0.148,0.088-0.252,0.252-0.296,0.486L66.631,139.909z"/>
			<path fill="#F5EB40" d="M71.532,139.862l-0.081,2.4l-1.087-0.037l0.054-1.694l0.003-0.419l-0.054-0.285l-0.157-0.165
				l-0.312-0.057l-0.311,0.053l-0.275,0.127l-0.086,2.395l-1.081-0.037l0.115-3.381l1.083,0.039l-0.012,0.373
				c0.193-0.141,0.375-0.25,0.551-0.327c0.17-0.075,0.363-0.11,0.567-0.102c0.224,0.007,0.417,0.066,0.586,0.168
				c0.171,0.109,0.297,0.257,0.383,0.454c0.23-0.174,0.444-0.312,0.65-0.407c0.21-0.099,0.412-0.143,0.608-0.136
				c0.366,0.012,0.64,0.132,0.819,0.357c0.184,0.227,0.267,0.544,0.255,0.957l-0.079,2.202l-1.09-0.039l0.062-1.687l0.006-0.422
				l-0.06-0.289l-0.154-0.161l-0.309-0.061l-0.268,0.038L71.532,139.862z"/>
			<path fill="#F5EB40" d="M76.638,141.271l-0.06-0.702l-0.471,0.092l-0.38,0.103l-0.236,0.173l-0.065,0.261l0.033,0.172
				l0.105,0.116l0.173,0.075l0.3,0.002l0.323-0.094L76.638,141.271z M76.685,141.791l-0.205,0.179l-0.228,0.169l-0.32,0.136
				l-0.374,0.067c-0.319,0.027-0.599-0.049-0.831-0.228c-0.233-0.177-0.362-0.423-0.391-0.734c-0.019-0.243,0.017-0.449,0.115-0.617
				c0.099-0.165,0.239-0.299,0.433-0.409c0.194-0.108,0.436-0.191,0.728-0.258c0.293-0.065,0.597-0.119,0.914-0.163l-0.002-0.019
				c-0.015-0.187-0.105-0.306-0.261-0.365c-0.157-0.057-0.385-0.075-0.685-0.048c-0.174,0.015-0.364,0.065-0.559,0.145
				c-0.195,0.081-0.334,0.14-0.42,0.182l-0.101,0.01l-0.07-0.815c0.111-0.038,0.291-0.09,0.546-0.154
				c0.254-0.065,0.509-0.106,0.766-0.129c0.617-0.055,1.066,0.002,1.359,0.163c0.289,0.167,0.451,0.457,0.486,0.858l0.201,2.294
				l-1.07,0.094L76.685,141.791z M77.088,137.224c0.011,0.338-0.052,0.598-0.182,0.772c-0.132,0.176-0.325,0.275-0.588,0.299
				l-0.272-0.033l-0.243-0.098l-0.218-0.096l-0.192-0.043l-0.187,0.114l-0.036,0.275l-0.658,0.055
				c-0.016-0.302,0.051-0.549,0.186-0.743c0.141-0.194,0.334-0.303,0.578-0.325l0.28,0.032l0.248,0.092l0.216,0.095l0.182,0.039
				l0.189-0.115l0.037-0.263L77.088,137.224z"/>
			<path fill="#F5EB40" d="M82.983,141.604c-0.328,0.046-0.641,0.041-0.931-0.017c-0.297-0.06-0.556-0.169-0.785-0.337
				c-0.229-0.161-0.417-0.383-0.571-0.655c-0.15-0.27-0.248-0.597-0.304-0.976c-0.048-0.353-0.043-0.68,0.023-0.981
				c0.068-0.3,0.182-0.571,0.357-0.8c0.165-0.225,0.381-0.411,0.649-0.559c0.274-0.146,0.58-0.244,0.917-0.29
				c0.189-0.027,0.357-0.04,0.51-0.04l0.428,0.022l0.38,0.073l0.302,0.094l0.154,1.076l-0.133,0.021l-0.233-0.143l-0.316-0.155
				l-0.379-0.11l-0.416-0.008l-0.45,0.139l-0.365,0.312c-0.105,0.13-0.177,0.292-0.22,0.489c-0.05,0.196-0.055,0.429-0.016,0.693
				c0.041,0.281,0.112,0.51,0.215,0.683c0.107,0.179,0.223,0.307,0.362,0.402l0.436,0.177l0.455,0.006l0.404-0.119l0.351-0.224
				l0.248-0.222l0.18-0.2l0.119-0.015l0.149,1.06l-0.299,0.185l-0.304,0.16l-0.394,0.151
				C83.379,141.537,83.208,141.57,82.983,141.604"/>
			<path fill="#F5EB40" d="M88.352,138.724c0.126,0.54,0.062,1.006-0.18,1.39c-0.244,0.387-0.651,0.642-1.222,0.777
				c-0.571,0.133-1.052,0.078-1.44-0.161c-0.391-0.241-0.644-0.631-0.77-1.173c-0.126-0.547-0.064-1.014,0.18-1.397
				c0.245-0.383,0.654-0.641,1.222-0.776c0.572-0.128,1.055-0.075,1.44,0.165C87.969,137.788,88.228,138.181,88.352,138.724
				 M87.238,139.825l0.082-0.34c0.008-0.129-0.011-0.295-0.061-0.506c-0.046-0.193-0.104-0.35-0.168-0.475l-0.218-0.28l-0.266-0.119
				l-0.296,0.018l-0.261,0.101l-0.187,0.218l-0.083,0.352c-0.008,0.14,0.012,0.312,0.057,0.512c0.045,0.185,0.094,0.333,0.158,0.457
				l0.221,0.285l0.261,0.117l0.313-0.016l0.259-0.111L87.238,139.825z"/>
			<path fill="#F5EB40" d="M91.176,137.263l-0.091,0.025l-0.225,0.024l-0.248,0.062l-0.391,0.139l-0.334,0.202l0.623,2.18
				l-1.042,0.298l-0.933-3.252l1.044-0.297l0.136,0.481c0.173-0.263,0.334-0.452,0.488-0.57l0.441-0.228l0.126-0.033l0.126-0.027
				L91.176,137.263z"/>
			<path fill="#F5EB40" d="M94.101,138.941c-0.281,0.097-0.549,0.152-0.798,0.161c-0.255,0.018-0.492-0.019-0.712-0.096
				c-0.213-0.082-0.407-0.211-0.572-0.391c-0.164-0.18-0.298-0.409-0.396-0.691c-0.099-0.301-0.138-0.573-0.112-0.826
				c0.024-0.251,0.099-0.478,0.229-0.682c0.128-0.195,0.292-0.362,0.495-0.503c0.206-0.141,0.43-0.253,0.67-0.337
				c0.222-0.073,0.43-0.119,0.631-0.132c0.201-0.02,0.395-0.015,0.578,0.005l0.303,0.871l-0.147,0.053l-0.182-0.07l-0.254-0.063
				l-0.292-0.015l-0.338,0.068c-0.274,0.098-0.454,0.253-0.544,0.478c-0.085,0.226-0.081,0.491,0.026,0.786
				c0.105,0.308,0.259,0.514,0.467,0.622c0.207,0.107,0.448,0.115,0.725,0.02l0.333-0.166l0.223-0.191l0.129-0.177l0.096-0.173
				l0.147-0.048l0.299,0.879l-0.441,0.35C94.5,138.779,94.315,138.867,94.101,138.941"/>
			<path fill="#F5EB40" d="M98.416,135.37c0.209,0.513,0.222,0.98,0.041,1.397c-0.178,0.421-0.544,0.739-1.085,0.959
				c-0.545,0.218-1.029,0.243-1.449,0.066c-0.422-0.174-0.736-0.521-0.946-1.036c-0.209-0.521-0.218-0.989-0.038-1.409
				c0.183-0.417,0.544-0.736,1.087-0.956c0.542-0.219,1.031-0.24,1.451-0.063C97.895,134.505,98.209,134.851,98.416,135.37
				 M97.486,136.629l0.032-0.348c-0.015-0.124-0.061-0.288-0.143-0.488c-0.075-0.184-0.154-0.333-0.236-0.442l-0.26-0.243
				l-0.279-0.075l-0.295,0.062l-0.243,0.144l-0.152,0.244l-0.027,0.359c0.015,0.141,0.06,0.308,0.141,0.501l0.227,0.424l0.261,0.248
				l0.28,0.073l0.3-0.063l0.246-0.154L97.486,136.629z"/>
			<polygon fill="#F5EB40" points="101.479,132.156 101.727,135.772 100.612,136.293 98.008,133.775 99.048,133.29 100.744,135.066 
				100.458,132.631 			"/>
			<path fill="#F5EB40" d="M104.816,133.205l-0.319-0.629l-0.402,0.261l-0.312,0.238l-0.156,0.248l0.041,0.269l0.094,0.146
				l0.139,0.069l0.188,0.004l0.281-0.111l0.263-0.209L104.816,133.205z M105.056,133.669l-0.122,0.241l-0.15,0.243l-0.249,0.246
				l-0.319,0.202c-0.287,0.148-0.571,0.182-0.854,0.102c-0.284-0.078-0.497-0.256-0.637-0.534c-0.112-0.218-0.154-0.422-0.128-0.612
				c0.027-0.19,0.11-0.371,0.252-0.546c0.136-0.168,0.331-0.341,0.575-0.508c0.251-0.172,0.51-0.336,0.788-0.495l-0.007-0.015
				l-0.379-0.243c-0.173,0.004-0.386,0.078-0.654,0.21l-0.465,0.349l-0.323,0.325l-0.086,0.045l-0.371-0.728
				c0.088-0.081,0.239-0.194,0.446-0.345c0.215-0.154,0.436-0.291,0.667-0.408c0.55-0.281,0.989-0.399,1.32-0.357
				c0.33,0.049,0.585,0.251,0.771,0.614l1.045,2.05l-0.959,0.488L105.056,133.669z"/>
			<path fill="#F5EB40" d="M109.815,131.231l-0.904,0.587l-0.197-0.292c-0.074,0.229-0.157,0.419-0.255,0.567
				c-0.096,0.15-0.233,0.281-0.411,0.401c-0.349,0.223-0.713,0.271-1.088,0.138c-0.384-0.135-0.72-0.423-1.011-0.876
				c-0.154-0.24-0.261-0.479-0.312-0.711c-0.051-0.228-0.06-0.452-0.025-0.663c0.032-0.2,0.108-0.39,0.226-0.565
				c0.119-0.178,0.26-0.317,0.422-0.424l0.456-0.218l0.422-0.079l-0.78-1.207l0.902-0.591L109.815,131.231z M108.398,131.035
				l-0.904-1.393l-0.238,0.074l-0.21,0.11c-0.238,0.156-0.37,0.346-0.388,0.572c-0.027,0.229,0.049,0.473,0.219,0.739
				c0.182,0.277,0.358,0.448,0.539,0.512c0.178,0.062,0.371,0.026,0.581-0.112l0.233-0.219L108.398,131.035z"/>
			<path fill="#F5EB40" d="M112.485,127.255c0.323,0.448,0.45,0.897,0.374,1.347c-0.07,0.45-0.345,0.846-0.822,1.193
				c-0.473,0.345-0.937,0.483-1.388,0.414c-0.452-0.07-0.839-0.327-1.169-0.781c-0.324-0.45-0.455-0.901-0.376-1.354
				c0.075-0.449,0.347-0.845,0.821-1.184c0.479-0.351,0.941-0.489,1.391-0.418C111.765,126.543,112.156,126.806,112.485,127.255
				 M111.883,128.702l-0.053-0.345l-0.255-0.439l-0.338-0.373l-0.312-0.169l-0.291-0.007l-0.265,0.131l-0.203,0.197l-0.088,0.275
				l0.062,0.354l0.255,0.45l0.325,0.36l0.314,0.174l0.288,0.004l0.279-0.135l0.199-0.207L111.883,128.702z"/>
			<polygon fill="#F5EB40" points="114.545,125.794 113.765,125.05 115.923,123.005 116.707,123.749 			"/>
			<path fill="#F5EB40" d="M121.112,118.299c0.304,0.288,0.506,0.616,0.615,0.983c0.108,0.365,0.123,0.712,0.051,1.047
				c-0.059,0.251-0.156,0.488-0.295,0.713c-0.148,0.222-0.342,0.465-0.586,0.723l-1.095,1.147l-3.243-3.1l1.126-1.177
				c0.251-0.264,0.49-0.473,0.719-0.622c0.229-0.147,0.442-0.25,0.65-0.304c0.35-0.09,0.703-0.091,1.057,0.002
				C120.465,117.801,120.802,118,121.112,118.299 M120.279,119.157c-0.211-0.203-0.43-0.34-0.659-0.407
				c-0.225-0.07-0.461-0.057-0.707,0.03l-0.338,0.178c-0.101,0.076-0.237,0.203-0.411,0.381l-0.2,0.214l2.031,1.939l0.199-0.214
				c0.192-0.198,0.324-0.352,0.391-0.46l0.162-0.368c0.063-0.238,0.049-0.456-0.029-0.669
				C120.64,119.57,120.494,119.36,120.279,119.157"/>
			<path fill="#F5EB40" d="M124.144,115.709l-1.522,1.962c0.218,0.151,0.442,0.199,0.666,0.134c0.226-0.059,0.447-0.233,0.668-0.521
				c0.144-0.181,0.25-0.381,0.31-0.601c0.07-0.218,0.103-0.411,0.105-0.563l0.073-0.094l0.687,0.531
				c-0.07,0.253-0.156,0.479-0.253,0.678c-0.098,0.199-0.23,0.405-0.39,0.61c-0.416,0.538-0.853,0.857-1.315,0.955
				c-0.466,0.097-0.916-0.024-1.364-0.368c-0.441-0.342-0.688-0.748-0.736-1.216c-0.053-0.474,0.107-0.943,0.478-1.415
				c0.332-0.437,0.697-0.678,1.084-0.727c0.392-0.05,0.793,0.087,1.204,0.405L124.144,115.709z M122.977,116.175
				c-0.181-0.135-0.352-0.194-0.508-0.179c-0.155,0.013-0.302,0.11-0.439,0.287c-0.126,0.165-0.192,0.333-0.186,0.507
				c0.005,0.173,0.097,0.339,0.276,0.497L122.977,116.175z"/>
			<path fill="#F5EB40" d="M127.83,113.331l-0.631,0.882l-0.304-0.219c0.008,0.252-0.006,0.468-0.038,0.654
				c-0.038,0.181-0.119,0.365-0.251,0.551c-0.221,0.305-0.475,0.475-0.769,0.514c-0.291,0.038-0.608-0.065-0.951-0.312l-1.786-1.285
				l0.638-0.885l1.363,0.979l0.353,0.235l0.277,0.103l0.23-0.045l0.23-0.232l0.14-0.281l0.064-0.354l-1.945-1.398l0.634-0.882
				L127.83,113.331z"/>
			<path fill="#F5EB40" d="M129.573,110.668l-0.141,0.351l-0.234,0.418c-0.23,0.355-0.473,0.573-0.725,0.654
				c-0.255,0.081-0.559,0.007-0.907-0.215l-1.33-0.852l-0.241,0.374l-0.619-0.399l0.241-0.372l-0.811-0.523l0.581-0.915l0.817,0.524
				l0.547-0.855l0.618,0.396l-0.547,0.856l1.006,0.647l0.264,0.167l0.228,0.089l0.218-0.037l0.224-0.23l0.09-0.204l0.047-0.199
				l0.048-0.074L129.573,110.668z"/>
			<path fill="#F5EB40" d="M130.475,107.079c0.303,0.173,0.473,0.45,0.5,0.826c0.031,0.378-0.089,0.806-0.356,1.28
				c-0.151,0.259-0.308,0.484-0.479,0.668c-0.173,0.184-0.323,0.326-0.456,0.421l-0.771-0.445l0.045-0.084l0.199-0.099l0.278-0.193
				l0.296-0.274l0.268-0.374c0.107-0.183,0.161-0.333,0.173-0.444l-0.105-0.237l-0.203-0.011l-0.258,0.243l-0.218,0.257
				l-0.255,0.286c-0.216,0.231-0.441,0.363-0.658,0.41c-0.222,0.044-0.441,0.005-0.663-0.122c-0.284-0.16-0.441-0.427-0.478-0.802
				c-0.032-0.376,0.085-0.795,0.348-1.258c0.121-0.22,0.269-0.417,0.426-0.597c0.16-0.178,0.297-0.304,0.414-0.39l0.74,0.425
				l-0.045,0.082c-0.177,0.085-0.344,0.2-0.506,0.343c-0.163,0.145-0.295,0.309-0.402,0.494l-0.155,0.416l0.09,0.258l0.197,0.021
				l0.298-0.272l0.236-0.275l0.262-0.293c0.204-0.215,0.41-0.34,0.615-0.379C130.064,106.922,130.269,106.96,130.475,107.079"/>
			<path fill="#F5EB40" d="M132.683,105.452c-0.138,0.26-0.295,0.482-0.469,0.665c-0.175,0.185-0.37,0.323-0.585,0.412
				c-0.21,0.09-0.439,0.128-0.683,0.11c-0.245-0.016-0.496-0.094-0.762-0.231c-0.278-0.15-0.497-0.318-0.648-0.517
				c-0.156-0.203-0.251-0.419-0.301-0.658c-0.041-0.228-0.036-0.466,0.017-0.706c0.052-0.243,0.138-0.479,0.26-0.703
				c0.108-0.206,0.226-0.383,0.363-0.533l0.428-0.388l0.814,0.427l-0.069,0.135l-0.184,0.077l-0.226,0.127l-0.222,0.19l-0.201,0.284
				c-0.136,0.255-0.157,0.496-0.063,0.718c0.087,0.224,0.273,0.407,0.551,0.555c0.292,0.149,0.546,0.195,0.77,0.131
				c0.222-0.061,0.403-0.224,0.536-0.482l0.134-0.349l0.027-0.293l-0.029-0.221l-0.044-0.187l0.069-0.135l0.817,0.429
				c-0.007,0.188-0.032,0.377-0.078,0.563C132.861,105.058,132.784,105.253,132.683,105.452"/>
			<path fill="#F5EB40" d="M134.814,100.679l-0.455,0.994l-1.523-0.703l-0.383-0.152l-0.302-0.059l-0.222,0.093l-0.182,0.271
				l-0.081,0.293l0.004,0.366l2.176,1.003l-0.453,0.983l-4.259-1.956l0.453-0.987l1.526,0.704c-0.057-0.243-0.081-0.457-0.082-0.654
				c-0.001-0.194,0.048-0.39,0.139-0.588c0.151-0.333,0.367-0.547,0.646-0.646c0.28-0.094,0.613-0.059,0.997,0.119L134.814,100.679z
				"/>
			<path fill="#F5EB40" d="M134.914,96.125l-0.795,2.35c0.255,0.072,0.478,0.04,0.671-0.088c0.195-0.132,0.348-0.368,0.463-0.711
				c0.074-0.214,0.111-0.44,0.102-0.67c-0.012-0.231-0.039-0.419-0.092-0.567l0.041-0.115l0.822,0.281
				c0.016,0.263,0.009,0.504-0.017,0.723c-0.029,0.218-0.086,0.453-0.169,0.702c-0.222,0.645-0.528,1.089-0.936,1.33
				c-0.405,0.248-0.875,0.277-1.405,0.099c-0.536-0.179-0.896-0.482-1.094-0.913c-0.201-0.43-0.202-0.929-0.012-1.49
				c0.177-0.522,0.439-0.868,0.79-1.043c0.351-0.172,0.778-0.176,1.271-0.01L134.914,96.125z M133.968,96.941
				c-0.216-0.062-0.399-0.065-0.539-0.003c-0.143,0.066-0.252,0.204-0.328,0.418c-0.066,0.197-0.069,0.378-0.007,0.539
				c0.062,0.163,0.198,0.289,0.419,0.38L133.968,96.941z"/>
			<path fill="#F5EB40" d="M136.732,89.963c0.431,0.107,0.735,0.372,0.91,0.803c0.183,0.428,0.196,0.958,0.045,1.582
				c-0.09,0.359-0.196,0.667-0.325,0.917c-0.131,0.255-0.271,0.486-0.427,0.7l-1.044-0.257l0.031-0.122
				c0.241-0.19,0.448-0.414,0.613-0.677c0.172-0.264,0.293-0.528,0.358-0.792l0.046-0.276l0.011-0.284l-0.084-0.246l-0.212-0.141
				l-0.28,0.063l-0.246,0.316c-0.074,0.155-0.154,0.319-0.235,0.49c-0.077,0.175-0.165,0.339-0.254,0.484
				c-0.21,0.34-0.433,0.565-0.676,0.672c-0.244,0.113-0.517,0.133-0.819,0.06c-0.408-0.101-0.695-0.362-0.862-0.789
				c-0.168-0.427-0.18-0.925-0.044-1.497c0.072-0.289,0.166-0.564,0.293-0.834c0.122-0.262,0.251-0.487,0.384-0.672l1.005,0.245
				l-0.03,0.119c-0.184,0.145-0.357,0.329-0.512,0.562c-0.156,0.228-0.265,0.478-0.332,0.743l-0.047,0.282l0.004,0.287l0.087,0.23
				l0.183,0.129l0.297-0.068c0.084-0.07,0.178-0.222,0.291-0.452l0.209-0.44l0.244-0.443c0.189-0.307,0.395-0.52,0.625-0.633
				S136.433,89.889,136.732,89.963"/>
			<path fill="#F5EB40" d="M138.731,87.88c-0.058,0.289-0.14,0.548-0.251,0.773c-0.119,0.23-0.262,0.419-0.439,0.568
				c-0.178,0.147-0.385,0.249-0.623,0.306c-0.237,0.054-0.504,0.055-0.798,0c-0.31-0.06-0.567-0.161-0.773-0.31
				c-0.206-0.144-0.362-0.325-0.478-0.536c-0.104-0.205-0.168-0.434-0.189-0.682c-0.02-0.245-0.006-0.496,0.04-0.748
				c0.043-0.226,0.109-0.434,0.194-0.615c0.082-0.184,0.185-0.349,0.291-0.501l0.911,0.173l-0.03,0.151l-0.156,0.128l-0.174,0.186
				l-0.16,0.247l-0.105,0.331c-0.056,0.286-0.006,0.518,0.145,0.705c0.152,0.189,0.383,0.313,0.691,0.37
				c0.326,0.058,0.582,0.027,0.774-0.098c0.193-0.127,0.324-0.331,0.377-0.622l0.021-0.371l-0.057-0.287l-0.092-0.205l-0.101-0.163
				l0.032-0.152l0.907,0.171c0.047,0.183,0.078,0.372,0.091,0.561C138.786,87.452,138.773,87.657,138.731,87.88"/>
			<path fill="#F5EB40" d="M139.457,82.651l-0.146,1.08l-1.665-0.221l-0.407-0.037l-0.303,0.031l-0.188,0.153l-0.098,0.317
				l0.012,0.303l0.106,0.346l2.379,0.323L139,86.019l-4.645-0.627l0.145-1.077l1.663,0.227c-0.124-0.21-0.214-0.411-0.268-0.599
				c-0.056-0.186-0.069-0.386-0.04-0.602c0.048-0.362,0.193-0.632,0.43-0.806c0.239-0.173,0.57-0.235,0.987-0.178L139.457,82.651z"
				/>
			<path fill="#F5EB40" d="M139.872,78.342l-0.087,1.081l-0.371-0.031c0.134,0.216,0.232,0.409,0.299,0.581
				c0.066,0.172,0.091,0.372,0.069,0.603c-0.03,0.372-0.157,0.649-0.392,0.835c-0.232,0.181-0.555,0.255-0.971,0.225l-2.197-0.181
				l0.09-1.089l1.67,0.138c0.176,0.013,0.314,0.019,0.427,0.016l0.286-0.053l0.178-0.158l0.075-0.317l-0.026-0.309l-0.119-0.339
				l-2.391-0.195l0.09-1.082L139.872,78.342z"/>
			
				<rect x="137.016" y="74.368" transform="matrix(0.0297 -0.9996 0.9996 0.0297 56.7986 211.9332)" fill="#F5EB40" width="1.082" height="4.688"/>
			<path fill="#F5EB40" d="M138.387,71.864l0.056,2.485c0.27-0.023,0.467-0.13,0.605-0.317c0.134-0.188,0.201-0.468,0.192-0.826
				c-0.005-0.229-0.052-0.451-0.14-0.665c-0.088-0.211-0.177-0.377-0.274-0.499l-0.004-0.12l0.868-0.022
				c0.106,0.244,0.184,0.474,0.231,0.686c0.051,0.219,0.078,0.456,0.084,0.722c0.014,0.678-0.126,1.2-0.422,1.569
				c-0.298,0.372-0.728,0.561-1.295,0.573c-0.559,0.012-1.001-0.149-1.335-0.484c-0.333-0.337-0.509-0.802-0.522-1.398
				c-0.01-0.552,0.115-0.963,0.39-1.251c0.272-0.283,0.666-0.43,1.192-0.441L138.387,71.864z M137.778,72.959
				c-0.225,0.009-0.399,0.072-0.512,0.181c-0.11,0.11-0.164,0.275-0.156,0.499c0.004,0.21,0.059,0.377,0.174,0.514
				c0.112,0.13,0.283,0.201,0.523,0.214L137.778,72.959z"/>
			<polygon fill-rule="evenodd" clip-rule="evenodd" fill="#F5EB40" points="132.037,43.531 133.152,47.143 136.768,47.143 
				133.843,49.378 134.962,52.988 132.037,50.757 129.113,52.988 130.231,49.378 127.31,47.143 130.921,47.143 			"/>
			<polygon fill-rule="evenodd" clip-rule="evenodd" fill="#F5EB40" points="122.783,28.097 123.898,31.71 127.509,31.71 
				124.584,33.943 125.702,37.552 122.783,35.32 119.859,37.552 120.975,33.943 118.052,31.71 121.664,31.71 			"/>
			<polygon fill-rule="evenodd" clip-rule="evenodd" fill="#F5EB40" points="109.535,15.961 110.654,19.573 114.266,19.573 
				111.343,21.806 112.459,25.419 109.535,23.185 106.614,25.419 107.734,21.806 104.811,19.573 108.42,19.573 			"/>
			<polygon fill-rule="evenodd" clip-rule="evenodd" fill="#F5EB40" points="36.641,15.193 37.756,18.807 41.372,18.807 
				38.447,21.039 39.564,24.649 36.641,22.42 33.72,24.649 34.834,21.039 31.914,18.807 35.522,18.807 			"/>
			<polygon fill-rule="evenodd" clip-rule="evenodd" fill="#F5EB40" points="22.68,28.163 23.796,31.775 27.408,31.775 
				24.483,34.007 25.602,37.619 22.68,35.388 19.755,37.619 20.874,34.007 17.95,31.775 21.561,31.775 			"/>
			<polygon fill-rule="evenodd" clip-rule="evenodd" fill="#F5EB40" points="13.097,44.272 14.216,47.884 17.828,47.884 
				14.903,50.12 16.022,53.73 13.097,51.497 10.174,53.73 11.293,50.12 8.369,47.884 11.982,47.884 			"/>
			<polygon fill-rule="evenodd" clip-rule="evenodd" fill="#F5EB40" points="14.626,99.353 15.743,102.965 19.353,102.965 
				16.432,105.199 17.547,108.811 14.626,106.578 11.701,108.811 12.819,105.199 9.897,102.965 13.507,102.965 			"/>
			<path fill-rule="evenodd" clip-rule="evenodd" fill="#00AE5E" d="M65.066,92.088c-3.274-18.646-10.67-48.556-18.893-49.128
				c-18.481-1.286-23.124,65.795-24.136,96.03c2.673-1.79,5.579-4.518,8.253-6.306C31.826,55.037,48.001,16.577,65.066,92.088"/>
			<path fill-rule="evenodd" clip-rule="evenodd" fill="#007843" d="M40.432,34.548l-0.334,0.021
				c-0.282-0.046-0.563-0.094-0.845-0.14l-0.098-0.312l0.488-0.04l0.455-0.119l0.413,0.197c0.282,0.006,0.563,0.016,0.843,0.02
				l0.098-0.02c0.289-0.031,0.58-0.064,0.865-0.095l0.411-0.139l1.689-0.237c0.033-0.263,0.066-0.525,0.1-0.788l0.078-0.488
				l0.039-0.139l0.216-0.254l0.272-0.06l0.238,0.101l0.158,0.153l0.06,0.434l0.019,1.081c0.3,0.03,0.601,0.063,0.903,0.095
				c0.385,0.123,0.773,0.25,1.158,0.375c0.623-0.041,1.245-0.079,1.868-0.119l0.272-0.213c0.184,0.011,0.368,0.024,0.552,0.036
				l0.119,0.058l0.216-0.017l0.039,0.079l0.079,0.077l-0.139,0.159l-0.275,0.094l-0.513,0.102h-0.35l-0.236,0.015l-0.198,0.591
				l-0.334,0.434c-0.503,0.048-1.006,0.092-1.513,0.138l-0.764,0.196c0.051,1.239,0.103,2.475,0.156,3.711l-0.098,0.159
				c0.008,0.4,0.013,0.797,0.019,1.196l-0.157,0.062l0.12,2.437h-2.771c0.021-1.362,0.041-2.725,0.06-4.086l-0.098-0.256
				c-0.014-0.294-0.028-0.588-0.041-0.886l-0.117-0.353l-0.12-0.038l0.019-1.907c-0.312-0.099-0.627-0.196-0.942-0.294
				c-0.366,0.013-0.732,0.026-1.101,0.04c-0.14-0.184-0.289-0.366-0.432-0.553l-0.274-0.489L40.432,34.548z"/>
			<path fill-rule="evenodd" clip-rule="evenodd" fill="#007843" d="M146.53,64.948c-31.021-1.383-58.87-5.595-81.415,20.947
				c-0.476-2.31-0.968-4.62-1.476-6.93c22.211-25.176,51.305-18.492,82.951-14.994c0,0,1.616,0.134,1.616,0.645
				C148.206,65.057,146.53,64.948,146.53,64.948"/>
			<path fill-rule="evenodd" clip-rule="evenodd" fill="#007843" d="M65.066,92.088c-3.274-18.646-10.67-48.556-18.893-49.128
				c-18.481-1.286-23.124,65.795-24.136,96.03c2.673-1.79,5.579-4.518,8.253-6.306C31.826,55.037,48.001,16.577,65.066,92.088"/>
			<polygon fill-rule="evenodd" clip-rule="evenodd" fill="#F5EB40" points="26.528,124.118 27.209,126.324 29.415,126.324 
				27.632,127.687 28.314,129.894 26.528,128.53 24.741,129.894 25.424,127.687 23.637,126.324 25.844,126.324 			"/>
			<polygon fill-rule="evenodd" clip-rule="evenodd" fill="#ED3436" points="27.034,115.798 27.718,118.004 29.926,118.004 
				28.138,119.369 28.82,121.574 27.034,120.209 25.252,121.574 25.93,119.369 24.147,118.004 26.355,118.004 			"/>
			<polygon fill-rule="evenodd" clip-rule="evenodd" fill="#17171B" points="27.545,107.48 28.226,109.684 30.433,109.684 
				28.648,111.05 29.332,113.255 27.545,111.892 25.76,113.255 26.441,111.05 24.658,109.684 26.866,109.684 			"/>
			<path fill="#007843" d="M89.713,115.287h-7.7l-2.001-5.84H69.302l-1.998,5.84h-7.509l10.673-28.886h8.58L89.713,115.287z
				 M78.212,104.151l-3.556-10.362l-3.55,10.362H78.212z"/>
			<path fill="#007843" d="M102.291,115.852c-2.152,0-4.14-0.32-5.967-0.958c-1.821-0.63-3.39-1.582-4.701-2.835
				c-1.307-1.265-2.323-2.831-3.049-4.713c-0.717-1.886-1.075-4.06-1.075-6.527c0-2.292,0.345-4.378,1.027-6.244
				c0.695-1.869,1.692-3.476,3-4.814c1.264-1.28,2.824-2.279,4.682-2.977c1.862-0.707,3.898-1.051,6.105-1.051
				c1.22,0,2.317,0.068,3.303,0.201c0.974,0.136,1.883,0.318,2.717,0.537c0.863,0.247,1.656,0.526,2.358,0.831
				c0.713,0.301,1.332,0.584,1.862,0.844v7.032h-0.857c-0.36-0.315-0.818-0.685-1.368-1.113c-0.552-0.432-1.177-0.847-1.883-1.268
				c-0.714-0.412-1.485-0.766-2.317-1.05c-0.832-0.285-1.716-0.426-2.666-0.426c-1.051,0-2.047,0.16-3,0.493
				c-0.946,0.331-1.82,0.886-2.63,1.647c-0.765,0.736-1.379,1.721-1.853,2.94c-0.479,1.222-0.712,2.694-0.712,4.437
				c0,1.821,0.253,3.337,0.764,4.56c0.518,1.214,1.162,2.179,1.942,2.88c0.792,0.715,1.674,1.22,2.643,1.524
				c0.976,0.308,1.935,0.458,2.887,0.458c0.908,0,1.804-0.132,2.696-0.404c0.892-0.271,1.704-0.645,2.459-1.11
				c0.64-0.379,1.228-0.785,1.775-1.209c0.545-0.428,0.988-0.798,1.343-1.111h0.777v6.932c-0.726,0.326-1.422,0.632-2.081,0.917
				c-0.661,0.284-1.355,0.532-2.088,0.738c-0.942,0.272-1.832,0.477-2.666,0.623C104.891,115.777,103.744,115.852,102.291,115.852"
				/>
			<polygon fill="#007843" points="58.364,115.288 37.469,115.288 37.469,86.4 58.364,86.4 58.364,91.981 44.878,91.981 
				44.878,96.968 57.392,96.968 57.392,102.559 44.878,102.559 44.878,109.697 58.364,109.697 			"/>
			<path fill="#007843" d="M46.758,120.783l-0.084-0.355l-0.294-0.238l-0.335-0.068l-0.451-0.013H45.08v1.486h0.432
				c0.232,0,0.421-0.012,0.573-0.035l0.39-0.15l0.216-0.255L46.758,120.783z M48.98,124.614h-1.74l-1.507-2.027H45.08v2.027h-1.419
				v-5.521h2.39c0.327,0,0.608,0.015,0.84,0.053c0.236,0.037,0.457,0.117,0.665,0.239c0.207,0.123,0.369,0.283,0.494,0.479
				c0.122,0.198,0.184,0.448,0.184,0.743c0,0.408-0.097,0.741-0.287,0.997c-0.192,0.256-0.456,0.47-0.811,0.642L48.98,124.614z"/>
			<path fill="#007843" d="M50.865,124.614h-1.336v-4.167h1.336V124.614z M50.901,119.854h-1.408v-1.012h1.408V119.854z"/>
			<path fill="#007843" d="M56.382,122.533c0,0.685-0.197,1.223-0.596,1.619c-0.399,0.397-0.962,0.592-1.683,0.592
				c-0.722,0-1.283-0.194-1.682-0.592c-0.399-0.395-0.598-0.934-0.598-1.619c0-0.689,0.199-1.229,0.602-1.624
				c0.403-0.394,0.96-0.592,1.678-0.592c0.729,0,1.288,0.198,1.687,0.595C56.184,121.307,56.382,121.848,56.382,122.533
				 M54.741,123.546l0.194-0.385c0.042-0.15,0.065-0.356,0.065-0.621c0-0.246-0.023-0.451-0.065-0.615l-0.186-0.399l-0.287-0.213
				l-0.359-0.066l-0.342,0.055l-0.287,0.205l-0.196,0.399c-0.048,0.169-0.072,0.379-0.072,0.633c0,0.227,0.021,0.424,0.06,0.592
				l0.186,0.403l0.283,0.212l0.38,0.066l0.346-0.062L54.741,123.546z"/>
			<path fill="#007843" d="M63.989,124.614h-1.334v-0.435c-0.23,0.19-0.448,0.324-0.648,0.415c-0.2,0.091-0.431,0.134-0.693,0.134
				c-0.51,0-0.914-0.193-1.216-0.584c-0.304-0.394-0.458-0.921-0.458-1.58c0-0.356,0.055-0.67,0.154-0.945
				c0.105-0.27,0.243-0.505,0.422-0.703c0.169-0.181,0.372-0.324,0.612-0.429c0.243-0.101,0.482-0.152,0.722-0.152
				c0.247,0,0.452,0.025,0.614,0.08l0.492,0.202v-1.774h1.334V124.614z M62.656,123.465v-2.044l-0.3-0.085l-0.282-0.027
				c-0.353,0-0.619,0.112-0.79,0.329c-0.178,0.219-0.266,0.523-0.266,0.909c0,0.407,0.068,0.704,0.213,0.888
				c0.139,0.185,0.368,0.276,0.678,0.276l0.386-0.067L62.656,123.465z"/>
			<path fill="#007843" d="M69.353,122.777h-3.059c0.021,0.328,0.148,0.579,0.374,0.752c0.228,0.172,0.566,0.258,1.015,0.258
				c0.279,0,0.549-0.05,0.816-0.152c0.262-0.103,0.473-0.208,0.628-0.327h0.148v1.071c-0.302,0.124-0.585,0.211-0.852,0.265
				c-0.27,0.052-0.566,0.08-0.888,0.08c-0.836,0-1.474-0.188-1.92-0.563c-0.443-0.377-0.671-0.911-0.671-1.606
				c0-0.687,0.213-1.233,0.635-1.633c0.422-0.402,1.002-0.606,1.733-0.606c0.679,0,1.188,0.175,1.531,0.515
				c0.342,0.344,0.511,0.835,0.511,1.479V122.777z M68.024,121.997c-0.008-0.282-0.076-0.49-0.207-0.633
				c-0.131-0.141-0.336-0.212-0.613-0.212c-0.26,0-0.467,0.069-0.634,0.201c-0.168,0.136-0.258,0.349-0.277,0.644H68.024z"/>
			<path fill="#007843" d="M75.844,122.993c0,0.243-0.041,0.469-0.127,0.68c-0.088,0.212-0.215,0.389-0.392,0.538
				c-0.177,0.155-0.399,0.278-0.651,0.359c-0.253,0.087-0.571,0.131-0.943,0.131c-0.255,0-0.498-0.009-0.722-0.027
				c-0.224-0.022-0.422-0.048-0.596-0.08v-1.121h0.137l0.372,0.124c0.128,0.037,0.291,0.053,0.49,0.053c0.259,0,0.46-0.032,0.6-0.1
				l0.3-0.292l0.095-0.399c0.008-0.144,0.01-0.327,0.01-0.557v-2.195h-1.263v-1.016h2.69V122.993z"/>
			<path fill="#007843" d="M79.633,123.527v-0.867c-0.179,0.012-0.378,0.033-0.585,0.061c-0.213,0.025-0.371,0.056-0.483,0.09
				l-0.304,0.184l-0.107,0.32l0.023,0.21l0.112,0.157l0.207,0.107l0.365,0.035l0.408-0.082L79.633,123.527z M79.633,124.171
				l-0.27,0.199l-0.3,0.181l-0.407,0.133l-0.464,0.043c-0.395,0-0.726-0.123-0.996-0.368c-0.27-0.243-0.399-0.556-0.399-0.939
				c0-0.305,0.068-0.553,0.201-0.748c0.139-0.19,0.33-0.342,0.58-0.453c0.248-0.112,0.553-0.191,0.92-0.238
				c0.365-0.046,0.744-0.083,1.136-0.103v-0.024c0-0.232-0.091-0.389-0.28-0.479c-0.188-0.085-0.466-0.132-0.832-0.132
				c-0.219,0-0.455,0.042-0.703,0.12c-0.251,0.079-0.429,0.136-0.538,0.179h-0.123v-1.004c0.141-0.037,0.371-0.08,0.69-0.136
				c0.316-0.048,0.634-0.073,0.954-0.073c0.76,0,1.307,0.113,1.645,0.349c0.336,0.237,0.507,0.602,0.507,1.102v2.834h-1.324V124.171
				z"/>
			<path fill="#007843" d="M86.37,124.614h-1.342v-2.067l-0.029-0.502l-0.089-0.369l-0.218-0.2l-0.397-0.064l-0.366,0.062
				l-0.409,0.185v2.954h-1.337v-4.167h1.337v0.462c0.236-0.186,0.464-0.326,0.684-0.427c0.22-0.099,0.463-0.148,0.727-0.148
				c0.451,0,0.802,0.132,1.056,0.391c0.254,0.265,0.384,0.653,0.384,1.175V124.614z"/>
			<path fill="#007843" d="M91.699,122.777H88.64c0.021,0.328,0.146,0.579,0.376,0.752c0.226,0.172,0.561,0.258,1.009,0.258
				c0.281,0,0.555-0.05,0.821-0.152c0.262-0.103,0.469-0.208,0.625-0.327h0.15v1.071c-0.307,0.124-0.586,0.211-0.855,0.265
				c-0.266,0.052-0.563,0.08-0.886,0.08c-0.836,0-1.474-0.188-1.92-0.563c-0.446-0.377-0.671-0.911-0.671-1.606
				c0-0.687,0.211-1.233,0.635-1.633c0.422-0.402,1.003-0.606,1.733-0.606c0.677,0,1.189,0.175,1.531,0.515
				c0.34,0.344,0.511,0.835,0.511,1.479V122.777z M90.367,121.997c-0.004-0.282-0.076-0.49-0.206-0.633
				c-0.128-0.141-0.333-0.212-0.61-0.212c-0.257,0-0.467,0.069-0.635,0.201c-0.163,0.136-0.259,0.349-0.28,0.644H90.367z"/>
			<path fill="#007843" d="M93.977,124.614h-1.336v-4.167h1.336V124.614z M94.011,119.854h-1.406v-1.012h1.406V119.854z"/>
			<path fill="#007843" d="M98.257,121.72h-0.119l-0.277-0.043l-0.312-0.015c-0.189,0-0.36,0.011-0.507,0.035l-0.472,0.129v2.788
				h-1.335v-4.168h1.335v0.611c0.297-0.249,0.553-0.415,0.769-0.502c0.221-0.082,0.42-0.122,0.6-0.122l0.158,0.002l0.16,0.011
				V121.72z"/>
			<path fill="#007843" d="M103.271,122.533c0,0.685-0.198,1.223-0.598,1.619c-0.4,0.397-0.959,0.592-1.684,0.592
				c-0.723,0-1.287-0.194-1.681-0.592c-0.399-0.395-0.598-0.934-0.598-1.619c0-0.689,0.199-1.229,0.602-1.624
				c0.403-0.394,0.959-0.592,1.677-0.592c0.726,0,1.291,0.198,1.685,0.595C103.073,121.307,103.271,121.848,103.271,122.533
				 M101.628,123.546l0.196-0.385c0.039-0.15,0.062-0.356,0.062-0.621c0-0.246-0.023-0.451-0.062-0.615l-0.188-0.399l-0.288-0.213
				l-0.358-0.066l-0.34,0.055l-0.288,0.205l-0.197,0.399c-0.047,0.169-0.072,0.379-0.072,0.633c0,0.227,0.021,0.424,0.061,0.592
				l0.188,0.403l0.282,0.212l0.375,0.066l0.346-0.062L101.628,123.546z"/>
			<path fill-rule="evenodd" clip-rule="evenodd" fill="#005BA6" d="M94.823,41.698c2.142,2.078,2.198,5.503,0.12,7.647
				c-2.08,2.14-5.501,2.194-7.648,0.119c-2.139-2.076-2.195-5.5-0.118-7.646C89.254,39.676,92.676,39.621,94.823,41.698"/>
			<path fill-rule="evenodd" clip-rule="evenodd" fill="#FFFFFF" d="M94.228,42.31c1.804,1.75,1.85,4.635,0.104,6.441
				c-1.75,1.805-4.634,1.851-6.438,0.099c-1.808-1.747-1.853-4.632-0.103-6.436C89.539,40.606,92.424,40.562,94.228,42.31"/>
			<polygon fill-rule="evenodd" clip-rule="evenodd" fill="#F5EB40" points="54.752,7.349 55.867,10.964 59.483,10.964 
				56.556,13.196 57.673,16.808 54.752,14.578 51.827,16.808 52.945,13.196 50.021,10.964 53.633,10.964 			"/>
			<polygon fill-rule="evenodd" clip-rule="evenodd" fill="#F5EB40" points="74.282,5.106 75.398,8.718 79.012,8.718 76.085,10.952 
				77.204,14.562 74.282,12.33 71.358,14.562 72.477,10.952 69.556,8.718 73.165,8.718 			"/>
			<polygon fill-rule="evenodd" clip-rule="evenodd" fill="#005BA6" points="66.807,49.044 69.793,51.363 72.754,49.29 
				71.638,52.799 74.625,55.114 70.95,54.962 69.836,58.467 68.682,54.868 65.008,54.713 67.964,52.644 			"/>
			<polygon fill-rule="evenodd" clip-rule="evenodd" fill="#005BA6" points="88.603,42.315 90.979,44.159 93.335,42.51 
				92.447,45.302 94.823,47.144 91.9,47.023 91.013,49.812 90.095,46.948 87.172,46.825 89.523,45.179 			"/>
			<polygon fill-rule="evenodd" clip-rule="evenodd" fill="#005BA6" points="87.903,25.612 90.326,27.493 92.728,25.811 
				91.823,28.658 94.246,30.537 91.265,30.413 90.361,33.257 89.425,30.337 86.444,30.212 88.842,28.533 			"/>
			<polygon fill-rule="evenodd" clip-rule="evenodd" fill="#005BA6" points="74.634,27.935 76.353,29.269 78.056,28.076 
				77.414,30.095 79.133,31.427 77.019,31.34 76.377,33.357 75.713,31.286 73.599,31.197 75.3,30.006 			"/>
			<polygon fill-rule="evenodd" clip-rule="evenodd" fill="#005BA6" points="74.485,40.169 75.921,41.285 77.346,40.287 
				76.809,41.975 78.246,43.089 76.478,43.016 75.942,44.703 75.387,42.971 73.619,42.896 75.041,41.901 			"/>
			<polygon fill-rule="evenodd" clip-rule="evenodd" fill="#F5EB40" points="93.13,8.013 94.247,11.627 97.859,11.627 
				94.938,13.859 96.052,17.473 93.13,15.239 90.207,17.473 91.326,13.859 88.401,11.627 92.011,11.627 			"/>
			<polygon fill-rule="evenodd" clip-rule="evenodd" fill="#F5EB40" points="8.37,81.497 9.487,85.109 13.097,85.109 10.172,87.343 
				11.291,90.955 8.37,88.723 5.449,90.955 6.564,87.343 3.643,85.109 7.253,85.109 			"/>
			<polygon fill-rule="evenodd" clip-rule="evenodd" fill="#F5EB40" points="8.37,61.658 9.487,65.269 13.097,65.269 10.172,67.502 
				11.291,71.115 8.37,68.883 5.449,71.115 6.564,67.502 3.643,65.269 7.253,65.269 			"/>
			<g opacity="0.17">
				<g>
					<defs>
						<rect id="SVGID_1_" x="143.965" y="63.886" width="4.255" height="1.062"/>
					</defs>
					<clipPath id="SVGID_2_">
						<use xlink:href="#SVGID_1_"  overflow="visible"/>
					</clipPath>
					<path clip-path="url(#SVGID_2_)" fill-rule="evenodd" clip-rule="evenodd" fill="#005BA6" d="M148.219,64.591
						c-0.023,0.277-0.993,0.424-2.168,0.328s-2.109-0.398-2.086-0.675c0.022-0.277,0.993-0.424,2.168-0.328
						C147.308,64.012,148.242,64.314,148.219,64.591"/>
				</g>
			</g>
		</g>
	</g>
</g>
</svg>
